<?xml version="1.0" standalone="no"?>
<!DOCTYPE svg PUBLIC "-//W3C//DTD SVG 20010904//EN"
 "http://www.w3.org/TR/2001/REC-SVG-20010904/DTD/svg10.dtd">
<svg version="1.0" xmlns="http://www.w3.org/2000/svg"
 width="500.000000pt" height="500.000000pt" viewBox="0 0 500.000000 500.000000"
 preserveAspectRatio="xMidYMid meet">

<g transform="translate(0.000000,500.000000) scale(0.100000,-0.100000)"
fill="#000000" stroke="none">
<path d="M2327 3553 c-33 -34 -50 -55 -125 -153 -40 -51 -108 -192 -132 -270
-12 -41 -26 -80 -31 -86 -5 -7 -15 -50 -21 -98 l-12 -85 -33 37 c-18 20 -54
74 -80 119 -25 46 -48 81 -51 79 -8 -9 60 -191 88 -236 5 -8 16 -30 24 -47 8
-18 19 -33 24 -33 14 0 31 -45 52 -141 19 -83 41 -165 56 -204 6 -16 2 -15
-23 8 -16 15 -32 27 -36 27 -9 0 -104 99 -145 151 -128 164 -197 383 -190 604
3 94 4 100 23 97 38 -7 200 -90 234 -121 40 -36 49 -34 28 6 -18 34 -85 97
-147 139 -62 43 -210 118 -217 110 -24 -24 -30 -294 -9 -431 33 -214 157 -439
324 -587 74 -66 269 -198 292 -198 44 0 143 188 186 355 33 128 39 296 14 375
-13 43 -14 43 -17 15 -18 -203 -37 -286 -82 -370 -11 -22 -21 -44 -21 -50 0
-5 -21 -37 -45 -69 l-45 -59 -26 59 c-18 40 -30 95 -40 174 -17 145 -17 211 0
331 15 109 77 264 126 319 17 19 32 40 35 49 8 22 68 68 72 55 2 -5 19 -34 38
-62 148 -225 197 -505 135 -768 -66 -281 -231 -504 -516 -699 -82 -57 -212
-123 -284 -145 l-55 -16 110 -24 c89 -20 139 -24 265 -25 167 0 206 7 341 65
182 77 361 259 587 597 23 34 40 54 111 135 50 57 152 125 238 160 43 17 82
34 86 38 15 13 -12 49 -79 104 -99 81 -214 105 -347 70 -68 -18 -122 -51 -187
-118 -54 -56 -39 -60 25 -7 51 42 139 71 218 71 70 0 197 -45 197 -69 0 -4
-17 -15 -37 -25 -62 -29 -195 -139 -248 -205 -27 -34 -67 -82 -87 -107 -21
-25 -38 -49 -38 -54 0 -5 -17 -29 -37 -54 -21 -25 -58 -73 -83 -107 -41 -55
-65 -84 -138 -160 -127 -135 -309 -223 -482 -235 l-75 -5 40 25 c22 14 44 26
49 26 5 0 32 17 60 38 28 21 62 45 76 52 36 19 174 164 225 235 50 71 135 232
135 258 0 10 6 30 14 45 40 80 62 392 37 530 -32 171 -106 353 -201 490 -34
50 -91 112 -102 112 -3 0 -21 -17 -41 -37z"/>
<path d="M1697 2389 c-21 -5 -47 -14 -59 -20 -20 -11 -20 -11 3 -35 50 -53
209 -83 268 -50 24 13 23 14 -33 35 -31 11 -61 21 -66 21 -6 0 -10 5 -10 11 0
11 76 3 119 -13 34 -12 36 -4 4 18 -54 37 -151 51 -226 33z"/>
<path d="M1930 2225 c-41 -6 -93 -20 -115 -32 -55 -29 -139 -108 -130 -123 15
-25 78 -41 156 -41 90 0 186 32 252 84 34 27 37 31 21 40 -10 6 -54 7 -108 3
-56 -4 -87 -4 -81 2 15 14 103 40 165 48 62 8 59 11 -25 22 -36 5 -90 4 -135
-3z"/>
</g>
</svg>
